<svg width="54" height="54" viewBox="0 0 54 54" fill="none" xmlns="http://www.w3.org/2000/svg">
<path d="M46.1406 20.25C45.9471 20.25 45.7615 20.1731 45.6246 20.0363C45.4878 19.8994 45.4109 19.7138 45.4109 19.5203V15.5068C45.4109 15.4109 45.4298 15.316 45.4664 15.2275C45.5031 15.139 45.5569 15.0585 45.6246 14.9908C45.6924 14.923 45.7728 14.8692 45.8614 14.8326C45.9499 14.7959 46.0448 14.777 46.1406 14.777C46.2364 14.777 46.3313 14.7959 46.4199 14.8326C46.5084 14.8692 46.5889 14.923 46.6566 14.9908C46.7244 15.0585 46.7781 15.139 46.8148 15.2275C46.8515 15.316 46.8704 15.4109 46.8704 15.5068V19.5203C46.8704 19.7138 46.7935 19.8994 46.6566 20.0363C46.5198 20.1731 46.3342 20.25 46.1406 20.25Z" fill="white"/>
<path d="M46.1406 34.3557C45.9471 34.3557 45.7615 34.2788 45.6246 34.1419C45.4878 34.0051 45.4109 33.8195 45.4109 33.6259V23.4389C45.4109 23.3431 45.4298 23.2482 45.4664 23.1596C45.5031 23.0711 45.5569 22.9907 45.6246 22.9229C45.6924 22.8551 45.7728 22.8014 45.8614 22.7647C45.9499 22.7281 46.0448 22.7092 46.1406 22.7092C46.2364 22.7092 46.3313 22.7281 46.4199 22.7647C46.5084 22.8014 46.5889 22.8551 46.6566 22.9229C46.7244 22.9907 46.7781 23.0711 46.8148 23.1596C46.8515 23.2482 46.8704 23.3431 46.8704 23.4389V33.6259C46.8704 33.8195 46.7935 34.0051 46.6566 34.1419C46.5198 34.2788 46.3342 34.3557 46.1406 34.3557Z" fill="white"/>
<path d="M46.1409 12.3178C45.9473 12.3178 45.7617 12.241 45.6249 12.1041C45.488 11.9672 45.4112 11.7816 45.4112 11.5881V8.58891H38.7998C38.6063 8.58891 38.4207 8.51203 38.2838 8.37518C38.147 8.23833 38.0701 8.05272 38.0701 7.85919C38.0701 7.66565 38.147 7.48004 38.2838 7.34319C38.4207 7.20634 38.6063 7.12946 38.7998 7.12946H46.1409C46.3344 7.12946 46.52 7.20634 46.6569 7.34319C46.7937 7.48004 46.8706 7.66565 46.8706 7.85919V11.5881C46.8706 11.7816 46.7937 11.9672 46.6569 12.1041C46.52 12.241 46.3344 12.3178 46.1409 12.3178Z" fill="white"/>
<path d="M33.6281 8.58965H20.3718C20.1783 8.58965 19.9927 8.51277 19.8558 8.37592C19.719 8.23906 19.6421 8.05345 19.6421 7.85992C19.6421 7.66638 19.719 7.48077 19.8558 7.34392C19.9927 7.20707 20.1783 7.13019 20.3718 7.13019H33.6281C33.8216 7.13019 34.0073 7.20707 34.1441 7.34392C34.281 7.48077 34.3578 7.66638 34.3578 7.85992C34.3578 8.05345 34.281 8.23906 34.1441 8.37592C34.0073 8.51277 33.8216 8.58965 33.6281 8.58965Z" fill="white"/>
<path d="M7.85986 15.9271C7.66632 15.9271 7.48071 15.8502 7.34386 15.7133C7.20701 15.5765 7.13013 15.3909 7.13013 15.1973V7.85992C7.13013 7.66638 7.20701 7.48077 7.34386 7.34392C7.48071 7.20707 7.66632 7.13019 7.85986 7.13019H15.1973C15.3908 7.13019 15.5764 7.20707 15.7133 7.34392C15.8501 7.48077 15.927 7.66638 15.927 7.85992C15.927 8.05345 15.8501 8.23906 15.7133 8.37591C15.5764 8.51276 15.3908 8.58965 15.1973 8.58965H8.58959V15.1973C8.58959 15.3909 8.51271 15.5765 8.37585 15.7133C8.239 15.8502 8.05339 15.9271 7.85986 15.9271Z" fill="white"/>
<path d="M15.1973 46.8698H7.85986C7.66632 46.8698 7.48071 46.7929 7.34386 46.6561C7.20701 46.5192 7.13013 46.3336 7.13013 46.1401V20.3719C7.13013 20.1783 7.20701 19.9927 7.34386 19.8559C7.48071 19.719 7.66632 19.6421 7.85986 19.6421C8.05339 19.6421 8.239 19.719 8.37585 19.8559C8.51271 19.9927 8.58959 20.1783 8.58959 20.3719V45.4104H15.1973C15.3908 45.4104 15.5764 45.4872 15.7133 45.6241C15.8501 45.7609 15.927 45.9465 15.927 46.1401C15.927 46.3336 15.8501 46.5192 15.7133 46.6561C15.5764 46.7929 15.3908 46.8698 15.1973 46.8698Z" fill="white"/>
<path d="M33.6281 46.8698H20.3718C20.1783 46.8698 19.9927 46.7929 19.8558 46.6561C19.719 46.5192 19.6421 46.3336 19.6421 46.1401C19.6421 45.9466 19.719 45.7609 19.8558 45.6241C19.9927 45.4872 20.1783 45.4104 20.3718 45.4104H33.6281C33.8216 45.4104 34.0073 45.4872 34.1441 45.6241C34.281 45.7609 34.3578 45.9466 34.3578 46.1401C34.3578 46.3336 34.281 46.5192 34.1441 46.6561C34.0073 46.7929 33.8216 46.8698 33.6281 46.8698Z" fill="white"/>
<path d="M46.1399 46.8698H38.8025C38.6089 46.8698 38.4233 46.7929 38.2865 46.6561C38.1496 46.5192 38.0728 46.3336 38.0728 46.1401C38.0728 45.9466 38.1496 45.761 38.2865 45.6241C38.4233 45.4872 38.6089 45.4104 38.8025 45.4104H45.4102V38.8027C45.4102 38.6091 45.4871 38.4235 45.6239 38.2867C45.7608 38.1498 45.9464 38.0729 46.1399 38.0729C46.3335 38.0729 46.5191 38.1498 46.6559 38.2867C46.7928 38.4235 46.8697 38.6091 46.8697 38.8027V46.1401C46.8697 46.3336 46.7928 46.5192 46.6559 46.6561C46.5191 46.7929 46.3335 46.8698 46.1399 46.8698Z" fill="white"/>
<path d="M27 34.3579C26.8065 34.3579 26.6208 34.281 26.484 34.1441C26.3471 34.0073 26.2703 33.8217 26.2703 33.6281V20.3719C26.2703 20.1783 26.3471 19.9927 26.484 19.8559C26.6208 19.719 26.8065 19.6421 27 19.6421C27.1935 19.6421 27.3791 19.719 27.516 19.8559C27.6529 19.9927 27.7297 20.1783 27.7297 20.3719V33.6281C27.7297 33.8217 27.6529 34.0073 27.516 34.1441C27.3791 34.281 27.1935 34.3579 27 34.3579Z" fill="white"/>
<path d="M27 46.8698C26.8065 46.8698 26.6208 46.7929 26.484 46.6561C26.3471 46.5192 26.2703 46.3336 26.2703 46.1401V38.8027C26.2703 38.6091 26.3471 38.4235 26.484 38.2867C26.6208 38.1498 26.8065 38.0729 27 38.0729C27.1935 38.0729 27.3791 38.1498 27.516 38.2867C27.6529 38.4235 27.7297 38.6091 27.7297 38.8027V46.1401C27.7297 46.3336 27.6529 46.5192 27.516 46.6561C27.3791 46.7929 27.1935 46.8698 27 46.8698Z" fill="white"/>
<path d="M27 15.9271C26.8065 15.9271 26.6208 15.8502 26.484 15.7133C26.3471 15.5765 26.2703 15.3909 26.2703 15.1973V7.85992C26.2703 7.66638 26.3471 7.48077 26.484 7.34392C26.6208 7.20707 26.8065 7.13019 27 7.13019C27.1935 7.13019 27.3791 7.20707 27.516 7.34392C27.6529 7.48077 27.7297 7.66638 27.7297 7.85992V15.1973C27.7297 15.3909 27.6529 15.5765 27.516 15.7133C27.3791 15.8502 27.1935 15.9271 27 15.9271Z" fill="white"/>
<path d="M24.7524 21.9379C24.0825 21.9366 23.4229 21.7733 22.8298 21.462C22.2366 21.1506 21.7276 20.7004 21.3461 20.1497C20.9646 19.5991 20.7219 18.9643 20.6388 18.2996C20.5557 17.6349 20.6346 16.9599 20.8687 16.3323C21.1029 15.7047 21.4854 15.143 21.9836 14.6952C22.4818 14.2473 23.081 13.9267 23.7299 13.7605C24.3789 13.5943 25.0584 13.5875 25.7105 13.7408C26.3627 13.894 26.9681 14.2027 27.4751 14.6406C27.5529 14.7012 27.6177 14.777 27.6654 14.8634C27.7131 14.9498 27.7428 15.045 27.7527 15.1432C27.7625 15.2414 27.7524 15.3406 27.7228 15.4348C27.6933 15.5289 27.6449 15.6161 27.5807 15.6911C27.5165 15.766 27.4377 15.8272 27.3492 15.8708C27.2607 15.9144 27.1642 15.9396 27.0656 15.9449C26.9671 15.9502 26.8685 15.9354 26.7758 15.9015C26.6831 15.8676 26.5983 15.8152 26.5264 15.7476C26.1363 15.4087 25.6569 15.1892 25.1455 15.1153C24.6341 15.0413 24.1122 15.116 23.642 15.3304C23.1718 15.5448 22.7732 15.8898 22.4938 16.3245C22.2143 16.7591 22.0657 17.265 22.0657 17.7817C22.0657 18.2984 22.2143 18.8043 22.4938 19.2389C22.7732 19.6735 23.1718 20.0186 23.642 20.233C24.1122 20.4474 24.6341 20.5221 25.1455 20.4481C25.6569 20.3741 26.1363 20.1547 26.5264 19.8158C26.5981 19.7473 26.683 19.6941 26.7759 19.6594C26.8688 19.6248 26.9678 19.6095 27.0668 19.6144C27.1659 19.6193 27.2629 19.6443 27.3519 19.688C27.4409 19.7316 27.5202 19.7929 27.5847 19.8682C27.6493 19.9435 27.6978 20.0311 27.7273 20.1258C27.7569 20.2204 27.7668 20.3201 27.7566 20.4187C27.7463 20.5174 27.7161 20.6129 27.6677 20.6994C27.6193 20.7859 27.5537 20.8617 27.4751 20.9221C26.7181 21.5751 25.7522 21.9355 24.7524 21.9379Z" fill="white"/>
<path d="M10.1074 21.9379C9.10801 21.9363 8.14218 21.577 7.38479 20.925C7.30613 20.8646 7.2406 20.7889 7.1922 20.7023C7.1438 20.6158 7.11354 20.5203 7.10328 20.4216C7.09302 20.323 7.10297 20.2233 7.13252 20.1287C7.16207 20.034 7.2106 19.9464 7.27515 19.8711C7.33969 19.7958 7.41891 19.7345 7.50795 19.6909C7.59699 19.6472 7.69399 19.6222 7.79302 19.6173C7.89206 19.6124 7.99106 19.6277 8.08397 19.6624C8.17689 19.697 8.26177 19.7502 8.33343 19.8187C8.82675 20.242 9.45518 20.475 10.1052 20.4755C10.5401 20.4747 10.9683 20.3687 11.3533 20.1665C11.7383 19.9642 12.0686 19.6718 12.316 19.3142C12.5635 18.9566 12.7206 18.5444 12.7741 18.1128C12.8276 17.6812 12.7759 17.2431 12.6233 16.8359C12.4707 16.4287 12.2218 16.0645 11.8978 15.7743C11.5738 15.4842 11.1845 15.2768 10.763 15.1699C10.3414 15.063 9.9003 15.0596 9.47723 15.1602C9.05415 15.2608 8.66171 15.4623 8.33343 15.7476C8.26157 15.8152 8.17673 15.8676 8.08404 15.9015C7.99136 15.9354 7.89276 15.9502 7.7942 15.9449C7.69565 15.9396 7.59919 15.9144 7.51066 15.8708C7.42213 15.8271 7.34337 15.766 7.27915 15.6911C7.21493 15.6161 7.16657 15.5289 7.13702 15.4348C7.10746 15.3406 7.09731 15.2414 7.10718 15.1432C7.11706 15.045 7.14675 14.9498 7.19447 14.8634C7.24218 14.777 7.30693 14.7012 7.38479 14.6406C7.89181 14.2019 8.49747 13.8924 9.15004 13.7386C9.80262 13.5847 10.4827 13.5911 11.1323 13.7571C11.7819 13.9231 12.3817 14.2439 12.8804 14.6919C13.3791 15.14 13.762 15.7022 13.9964 16.3303C14.2308 16.9585 14.3096 17.634 14.2263 18.2993C14.143 18.9646 13.8999 19.5998 13.5178 20.1507C13.1357 20.7017 12.6259 21.1519 12.0321 21.4631C11.4382 21.7744 10.7779 21.9372 10.1074 21.9379Z" fill="white"/>
<path d="M29.2475 40.3694C28.2481 40.3679 27.2823 40.0085 26.5249 39.3565C26.4471 39.2959 26.3823 39.22 26.3346 39.1336C26.2869 39.0472 26.2572 38.9521 26.2473 38.8539C26.2374 38.7557 26.2476 38.6565 26.2772 38.5623C26.3067 38.4681 26.3551 38.381 26.4193 38.306C26.4835 38.2311 26.5623 38.1699 26.6508 38.1263C26.7393 38.0827 26.8358 38.0574 26.9343 38.0522C27.0329 38.0469 27.1315 38.0617 27.2242 38.0956C27.3169 38.1295 27.4017 38.1819 27.4736 38.2495C27.8637 38.5883 28.3431 38.8078 28.8545 38.8818C29.3659 38.9558 29.8878 38.8811 30.358 38.6667C30.8281 38.4523 31.2267 38.1072 31.5062 37.6726C31.7857 37.238 31.9343 36.7321 31.9343 36.2154C31.9343 35.6987 31.7857 35.1928 31.5062 34.7582C31.2267 34.3235 30.8281 33.9785 30.358 33.7641C29.8878 33.5497 29.3659 33.475 28.8545 33.549C28.3431 33.623 27.8637 33.8424 27.4736 34.1813C27.4019 34.2498 27.317 34.303 27.2241 34.3376C27.1312 34.3723 27.0322 34.3876 26.9332 34.3827C26.8341 34.3778 26.7371 34.3528 26.6481 34.3091C26.559 34.2655 26.4798 34.2042 26.4153 34.1289C26.3507 34.0536 26.3022 33.966 26.2727 33.8713C26.2431 33.7767 26.2332 33.677 26.2434 33.5784C26.2537 33.4797 26.2839 33.3842 26.3323 33.2977C26.3807 33.2112 26.4463 33.1354 26.5249 33.075C27.0319 32.6363 27.6376 32.3269 28.2901 32.173C28.9426 32.0192 29.6227 32.0255 30.2723 32.1915C30.9218 32.3575 31.5216 32.6782 32.0203 33.1262C32.5191 33.5742 32.902 34.1363 33.1364 34.7644C33.3708 35.3925 33.4498 36.068 33.3665 36.7333C33.2832 37.3985 33.0402 38.0337 32.6582 38.5847C32.2762 39.1357 31.7666 39.586 31.1728 39.8973C30.579 40.2086 29.9187 40.3715 29.2483 40.3723L29.2475 40.3694Z" fill="white"/>
<path d="M43.8923 40.3694C43.2224 40.3681 42.5628 40.2048 41.9696 39.8935C41.3765 39.5821 40.8675 39.1319 40.486 38.5813C40.1045 38.0306 39.8618 37.3959 39.7787 36.7311C39.6956 36.0664 39.7745 35.3915 40.0086 34.7638C40.2428 34.1362 40.6253 33.5745 41.1235 33.1267C41.6217 32.6788 42.2208 32.3582 42.8698 32.192C43.5188 32.0258 44.1983 32.019 44.8504 32.1723C45.5025 32.3255 46.1079 32.6342 46.6149 33.0721C46.6936 33.1325 46.7591 33.2082 46.8075 33.2948C46.8559 33.3813 46.8862 33.4768 46.8964 33.5754C46.9067 33.6741 46.8968 33.7738 46.8672 33.8684C46.8377 33.9631 46.7891 34.0507 46.7246 34.126C46.66 34.2013 46.5808 34.2626 46.4918 34.3062C46.4027 34.3499 46.3057 34.3749 46.2067 34.3798C46.1077 34.3847 46.0087 34.3694 45.9158 34.3347C45.8228 34.3001 45.738 34.2469 45.6663 34.1784C45.173 33.755 44.5446 33.5221 43.8945 33.5216C43.4596 33.5224 43.0314 33.6284 42.6464 33.8306C42.2614 34.0329 41.9311 34.3253 41.6837 34.6829C41.4363 35.0405 41.2791 35.4527 41.2256 35.8843C41.1721 36.3159 41.2239 36.754 41.3765 37.1612C41.5291 37.5684 41.778 37.9326 42.1019 38.2227C42.4259 38.5129 42.8153 38.7203 43.2368 38.8272C43.6583 38.9341 44.0994 38.9374 44.5225 38.8368C44.9456 38.7363 45.338 38.5347 45.6663 38.2495C45.8143 38.1342 46.0011 38.0803 46.1878 38.0991C46.3745 38.1179 46.5468 38.2079 46.6689 38.3503C46.791 38.4928 46.8535 38.6769 46.8434 38.8642C46.8334 39.0516 46.7516 39.2279 46.6149 39.3565C45.8576 40.0086 44.8917 40.3679 43.8923 40.3694Z" fill="white"/>
<path d="M33.6281 27.7297H20.3718C20.1783 27.7297 19.9927 27.6529 19.8558 27.516C19.719 27.3792 19.6421 27.1935 19.6421 27C19.6421 26.8065 19.719 26.6209 19.8558 26.484C19.9927 26.3472 20.1783 26.2703 20.3718 26.2703H33.6281C33.8216 26.2703 34.0073 26.3472 34.1441 26.484C34.281 26.6209 34.3578 26.8065 34.3578 27C34.3578 27.1935 34.281 27.3792 34.1441 27.516C34.0073 27.6529 33.8216 27.7297 33.6281 27.7297Z" fill="white"/>
<path d="M15.1973 27.7297H7.85986C7.66632 27.7297 7.48071 27.6529 7.34386 27.516C7.20701 27.3792 7.13013 27.1935 7.13013 27C7.13013 26.8065 7.20701 26.6209 7.34386 26.484C7.48071 26.3472 7.66632 26.2703 7.85986 26.2703H15.1973C15.3908 26.2703 15.5764 26.3472 15.7133 26.484C15.8501 26.6209 15.927 26.8065 15.927 27C15.927 27.1935 15.8501 27.3792 15.7133 27.516C15.5764 27.6529 15.3908 27.7297 15.1973 27.7297Z" fill="white"/>
<path d="M46.1399 27.7297H38.8025C38.6089 27.7297 38.4233 27.6529 38.2865 27.516C38.1496 27.3792 38.0728 27.1935 38.0728 27C38.0728 26.8065 38.1496 26.6209 38.2865 26.484C38.4233 26.3472 38.6089 26.2703 38.8025 26.2703H46.1399C46.3335 26.2703 46.5191 26.3472 46.6559 26.484C46.7928 26.6209 46.8697 26.8065 46.8697 27C46.8697 27.1935 46.7928 27.3792 46.6559 27.516C46.5191 27.6529 46.3335 27.7297 46.1399 27.7297Z" fill="white"/>
<path d="M38.8025 27.7297C38.663 27.7296 38.5265 27.6894 38.4091 27.6141C38.2917 27.5387 38.1984 27.4313 38.1401 27.3045C38.0819 27.1777 38.0613 27.0369 38.0807 26.8987C38.1 26.7606 38.1586 26.6308 38.2494 26.5249C38.5882 26.1348 38.8077 25.6554 38.8817 25.144C38.9557 24.6326 38.881 24.1107 38.6666 23.6405C38.4522 23.1704 38.1071 22.7718 37.6725 22.4923C37.2379 22.2128 36.732 22.0642 36.2153 22.0642C35.6985 22.0642 35.1927 22.2128 34.7581 22.4923C34.3234 22.7718 33.9783 23.1704 33.7639 23.6405C33.5495 24.1107 33.4749 24.6326 33.5489 25.144C33.6228 25.6554 33.8423 26.1348 34.1812 26.5249C34.2497 26.5966 34.3029 26.6815 34.3375 26.7744C34.3722 26.8673 34.3875 26.9663 34.3826 27.0653C34.3777 27.1644 34.3527 27.2614 34.309 27.3504C34.2654 27.4395 34.2041 27.5187 34.1288 27.5832C34.0535 27.6478 33.9659 27.6963 33.8712 27.7259C33.7766 27.7554 33.6769 27.7654 33.5782 27.7551C33.4796 27.7448 33.3841 27.7146 33.2976 27.6662C33.211 27.6178 33.1353 27.5522 33.0749 27.4736C32.5539 26.8717 32.217 26.1327 32.104 25.3447C31.9911 24.5567 32.107 23.7528 32.4379 23.0288C32.7688 22.3048 33.3008 21.6911 33.9706 21.2609C34.6403 20.8306 35.4196 20.6018 36.2156 20.6018C37.0117 20.6018 37.791 20.8306 38.4607 21.2609C39.1305 21.6911 39.6625 22.3048 39.9934 23.0288C40.3243 23.7528 40.4402 24.5567 40.3273 25.3447C40.2143 26.1327 39.8773 26.8717 39.3564 27.4736C39.288 27.5537 39.2031 27.6181 39.1075 27.6623C39.0119 27.7065 38.9079 27.7295 38.8025 27.7297Z" fill="white"/>
<path d="M36.2151 14.2611C35.4195 14.2588 34.6412 14.0285 33.9726 13.5973C33.304 13.1661 32.773 12.5522 32.4428 11.8285C32.1125 11.1047 31.9967 10.3013 32.1091 9.51373C32.2216 8.72613 32.5576 7.9873 33.0772 7.38486C33.1376 7.3062 33.2134 7.24067 33.2999 7.19227C33.3865 7.14387 33.482 7.11362 33.5806 7.10336C33.6792 7.0931 33.7789 7.10305 33.8736 7.13259C33.9682 7.16214 34.0558 7.21067 34.1311 7.27522C34.2064 7.33977 34.2677 7.41898 34.3114 7.50802C34.355 7.59706 34.38 7.69406 34.3849 7.7931C34.3898 7.89214 34.3745 7.99114 34.3399 8.08405C34.3052 8.17696 34.252 8.26184 34.1835 8.33351C33.7602 8.82683 33.5272 9.45526 33.5267 10.1053C33.5275 10.5402 33.6335 10.9684 33.8358 11.3534C34.038 11.7384 34.3304 12.0687 34.688 12.3161C35.0457 12.5635 35.4579 12.7207 35.8894 12.7742C36.321 12.8277 36.7591 12.776 37.1663 12.6233C37.5735 12.4707 37.9378 12.2218 38.2279 11.8979C38.518 11.5739 38.7254 11.1846 38.8323 10.763C38.9393 10.3415 38.9426 9.90038 38.842 9.4773C38.7414 9.05422 38.5399 8.66179 38.2547 8.33351C38.187 8.26165 38.1346 8.1768 38.1007 8.08412C38.0668 7.99144 38.052 7.89283 38.0573 7.79428C38.0626 7.69572 38.0878 7.59926 38.1314 7.51073C38.1751 7.42221 38.2362 7.34345 38.3112 7.27923C38.3861 7.215 38.4733 7.16665 38.5675 7.13709C38.6616 7.10753 38.7608 7.09739 38.859 7.10726C38.9572 7.11714 39.0524 7.14683 39.1388 7.19454C39.2252 7.24226 39.301 7.307 39.3617 7.38486C39.8813 7.9873 40.2173 8.72613 40.3297 9.51373C40.4422 10.3013 40.3264 11.1047 39.9961 11.8285C39.6658 12.5522 39.1349 13.1661 38.4663 13.5973C37.7977 14.0285 37.0194 14.2588 36.2238 14.2611H36.2151Z" fill="white"/>
<path d="M36.2151 52.5405C35.4195 52.5383 34.6412 52.3079 33.9726 51.8767C33.304 51.4456 32.773 50.8317 32.4428 50.1079C32.1125 49.3841 31.9967 48.5808 32.1091 47.7932C32.2216 47.0056 32.5576 46.2667 33.0772 45.6643C33.1376 45.5856 33.2134 45.5201 33.2999 45.4717C33.3865 45.4233 33.482 45.3931 33.5806 45.3828C33.6792 45.3725 33.7789 45.3825 33.8736 45.412C33.9682 45.4416 34.0558 45.4901 34.1311 45.5547C34.2064 45.6192 34.2677 45.6984 34.3114 45.7875C34.355 45.8765 34.38 45.9735 34.3849 46.0725C34.3898 46.1716 34.3745 46.2706 34.3399 46.3635C34.3052 46.4564 34.252 46.5413 34.1835 46.6129C33.7602 47.1063 33.5272 47.7347 33.5267 48.3847C33.5275 48.8196 33.6335 49.2478 33.8358 49.6328C34.038 50.0178 34.3304 50.3481 34.688 50.5955C35.0457 50.843 35.4579 51.0001 35.8894 51.0537C36.321 51.1072 36.7591 51.0554 37.1663 50.9028C37.5735 50.7502 37.9378 50.5013 38.2279 50.1773C38.518 49.8534 38.7254 49.464 38.8323 49.0425C38.9393 48.621 38.9426 48.1798 38.842 47.7567C38.7414 47.3337 38.5399 46.9412 38.2546 46.6129C38.187 46.5411 38.1346 46.4562 38.1007 46.3636C38.0668 46.2709 38.052 46.1723 38.0573 46.0737C38.0626 45.9752 38.0878 45.8787 38.1314 45.7902C38.1751 45.7016 38.2362 45.6229 38.3111 45.5587C38.3861 45.4944 38.4733 45.4461 38.5675 45.4165C38.6616 45.387 38.7608 45.3768 38.859 45.3867C38.9572 45.3966 39.0524 45.4263 39.1388 45.474C39.2252 45.5217 39.301 45.5864 39.3616 45.6643C39.8818 46.2673 40.2179 47.0069 40.33 47.7953C40.4422 48.5837 40.3256 49.3877 39.9943 50.1119C39.6629 50.836 39.1307 51.4498 38.4607 51.8803C37.7908 52.3108 37.0114 52.54 36.2151 52.5405Z" fill="white"/>
<path d="M17.785 33.4005C16.9895 33.3981 16.2115 33.1677 15.543 32.7365C14.8745 32.3054 14.3436 31.6916 14.0134 30.968C13.6831 30.2443 13.5673 29.4411 13.6796 28.6537C13.792 27.8662 14.1277 27.1274 14.6472 26.525C14.7078 26.4471 14.7836 26.3824 14.87 26.3346C14.9564 26.2869 15.0516 26.2572 15.1498 26.2474C15.248 26.2375 15.3472 26.2476 15.4414 26.2772C15.5355 26.3068 15.6227 26.3551 15.6977 26.4193C15.7726 26.4835 15.8337 26.5623 15.8774 26.6508C15.921 26.7394 15.9462 26.8358 15.9515 26.9344C15.9568 27.0329 15.942 27.1315 15.9081 27.2242C15.8742 27.3169 15.8218 27.4017 15.7542 27.4736C15.4153 27.8638 15.1958 28.3431 15.1219 28.8545C15.0479 29.366 15.1226 29.8879 15.3369 30.358C15.5513 30.8282 15.8964 31.2268 16.3311 31.5063C16.7657 31.7858 17.2715 31.9344 17.7883 31.9344C18.305 31.9344 18.8109 31.7858 19.2455 31.5063C19.6801 31.2268 20.0252 30.8282 20.2396 30.358C20.454 29.8879 20.5287 29.366 20.4547 28.8545C20.3807 28.3431 20.1612 27.8638 19.8224 27.4736C19.7539 27.4019 19.7007 27.3171 19.666 27.2242C19.6314 27.1312 19.6161 27.0322 19.621 26.9332C19.6259 26.8342 19.6509 26.7372 19.6945 26.6481C19.7382 26.5591 19.7995 26.4799 19.8748 26.4153C19.95 26.3508 20.0377 26.3022 20.1323 26.2727C20.227 26.2431 20.3267 26.2332 20.4253 26.2435C20.5239 26.2537 20.6194 26.284 20.706 26.3324C20.7925 26.3808 20.8683 26.4463 20.9287 26.525C21.4483 27.1274 21.7843 27.8662 21.8967 28.6538C22.0092 29.4414 21.8934 30.2448 21.5631 30.9686C21.2328 31.6923 20.7019 32.3062 20.0333 32.7374C19.3647 33.1686 18.5864 33.399 17.7908 33.4012L17.785 33.4005Z" fill="white"/>
<path d="M15.1973 8.58964C15.0922 8.58972 14.9882 8.56707 14.8926 8.52324C14.797 8.47941 14.7121 8.41543 14.6435 8.33569C14.1225 7.73376 13.7856 6.99481 13.6726 6.20681C13.5597 5.4188 13.6756 4.61495 14.0065 3.89094C14.3374 3.16692 14.8694 2.55325 15.5392 2.12297C16.2089 1.6927 16.9882 1.46394 17.7842 1.46394C18.5803 1.46394 19.3596 1.6927 20.0293 2.12297C20.6991 2.55325 21.2311 3.16692 21.562 3.89094C21.8929 4.61495 22.0088 5.4188 21.8959 6.20681C21.7829 6.99481 21.4459 7.73376 20.925 8.33569C20.8646 8.41435 20.7889 8.47988 20.7023 8.52828C20.6158 8.57668 20.5203 8.60694 20.4216 8.6172C20.323 8.62746 20.2233 8.61751 20.1287 8.58796C20.034 8.55841 19.9464 8.50988 19.8711 8.44533C19.7958 8.38078 19.7345 8.30157 19.6909 8.21253C19.6472 8.12349 19.6222 8.02649 19.6173 7.92745C19.6124 7.82842 19.6277 7.72942 19.6624 7.6365C19.697 7.54359 19.7502 7.45871 19.8187 7.38704C20.242 6.89373 20.475 6.2653 20.4755 5.61526C20.4747 5.18039 20.3687 4.75217 20.1665 4.36717C19.9642 3.98218 19.6718 3.65187 19.3142 3.40444C18.9566 3.15702 18.5444 2.99984 18.1128 2.94634C17.6812 2.89284 17.2431 2.9446 16.8359 3.0972C16.4287 3.24981 16.0645 3.49872 15.7743 3.82267C15.4842 4.14663 15.2768 4.536 15.1699 4.95751C15.063 5.37903 15.0596 5.82017 15.1602 6.24325C15.2608 6.66633 15.4623 7.05877 15.7476 7.38704C15.8384 7.49294 15.8969 7.62266 15.9163 7.76081C15.9357 7.89897 15.915 8.03979 15.8568 8.16657C15.7986 8.29336 15.7053 8.4008 15.5879 8.47617C15.4705 8.55154 15.3339 8.59168 15.1944 8.59183L15.1973 8.58964Z" fill="white"/>
<path d="M15.1973 46.8698C15.0921 46.8698 14.9881 46.847 14.8925 46.8031C14.7969 46.7591 14.712 46.695 14.6435 46.6151C14.1225 46.0132 13.7856 45.2743 13.6726 44.4863C13.5597 43.6983 13.6756 42.8944 14.0065 42.1704C14.3374 41.4464 14.8694 40.8327 15.5392 40.4024C16.2089 39.9721 16.9882 39.7434 17.7842 39.7434C18.5803 39.7434 19.3596 39.9721 20.0293 40.4024C20.6991 40.8327 21.2311 41.4464 21.562 42.1704C21.8929 42.8944 22.0088 43.6983 21.8959 44.4863C21.7829 45.2743 21.4459 46.0132 20.925 46.6151C20.8646 46.6938 20.7889 46.7593 20.7023 46.8077C20.6158 46.8561 20.5203 46.8864 20.4216 46.8966C20.323 46.9069 20.2233 46.897 20.1287 46.8674C20.034 46.8379 19.9464 46.7893 19.8711 46.7248C19.7958 46.6602 19.7345 46.581 19.6909 46.492C19.6472 46.4029 19.6222 46.3059 19.6173 46.2069C19.6124 46.1079 19.6277 46.0089 19.6624 45.916C19.697 45.823 19.7502 45.7382 19.8187 45.6665C20.242 45.1732 20.475 44.5447 20.4755 43.8947C20.4747 43.4598 20.3687 43.0316 20.1665 42.6466C19.9642 42.2616 19.6718 41.9313 19.3142 41.6839C18.9566 41.4365 18.5444 41.2793 18.1128 41.2258C17.6812 41.1723 17.2431 41.224 16.8359 41.3766C16.4287 41.5293 16.0645 41.7782 15.7743 42.1021C15.4842 42.4261 15.2768 42.8154 15.1699 43.237C15.063 43.6585 15.0596 44.0996 15.1602 44.5227C15.2608 44.9458 15.4623 45.3382 15.7476 45.6665C15.8386 45.7724 15.8974 45.9022 15.9169 46.0404C15.9363 46.1787 15.9158 46.3197 15.8575 46.4466C15.7993 46.5735 15.7058 46.6811 15.5883 46.7565C15.4708 46.8319 15.3341 46.872 15.1944 46.872L15.1973 46.8698Z" fill="white"/>
</svg>
